#N canvas 298 101 1010 682 12;
#X text 103 7 DELAYS;
#X text 277 32 <-- delay time;
#X obj 15 275 +~;
#X text 28 107 test signal to delay;
#X obj 14 87 phasor~ 3000;
#X floatatom 20 53 5 0 0 0 - - -, f 5;
#X floatatom 234 41 4 0 999 0 - - -, f 4;
#X text 242 75 read from delay line;
#X obj 234 94 delread~ delay1;
#X text 147 347 write to delay line;
#X obj 131 366 delwrite~ delay1 1000;
#X obj 240 208 *~;
#X obj 262 160 hsl 128 15 0 1 0 0 empty empty empty -2 -8 0 10 -262144
-1 -1 10100 1;
#X obj 18 442 dac~;
#X text 279 186 feedback amount;
#X obj 238 277 tanh~;
#X obj 241 243 onepole~ 5000;
#X connect 2 0 10 0;
#X connect 2 0 13 0;
#X connect 2 0 13 1;
#X connect 4 0 2 0;
#X connect 5 0 4 0;
#X connect 6 0 8 0;
#X connect 8 0 11 0;
#X connect 11 0 16 0;
#X connect 12 0 11 1;
#X connect 15 0 2 1;
#X connect 16 0 15 0;
