#N canvas 616 74 641 366 10;
#X declare -lib Gem;
#X obj -328 196 cnv 15 430 130 empty empty empty 20 12 0 14 -233017
-66577 0;
#X text -297 198 Inlets:;
#X text -273 211 Inlet 1: gemlist;
#X text -297 292 Outlets:;
#X text -279 305 Outlet 1: gemlist;
#X obj -328 146 cnv 15 430 40 empty empty empty 20 12 0 14 -195568
-66577 0;
#X text -319 145 Arguments:;
#X obj -328 76 cnv 15 430 60 empty empty empty 20 12 0 14 -233017 -66577
0;
#X obj 514 254 cnv 15 100 60 empty empty empty 20 12 0 14 -195568 -66577
0;
#N canvas 0 22 450 300 gemwin 0;
#X obj 132 136 gemwin;
#X obj 67 89 outlet;
#X obj 67 10 inlet;
#X obj 67 41 route create;
#X msg 67 70 set destroy;
#X msg 142 68 set create;
#X msg 197 134 destroy;
#X msg 132 112 reset \, lighting 1 \, create \, 1;
#X connect 2 0 3 0;
#X connect 3 0 4 0;
#X connect 3 0 7 0;
#X connect 3 1 5 0;
#X connect 3 1 6 0;
#X connect 4 0 1 0;
#X connect 5 0 1 0;
#X connect 6 0 0 0;
#X connect 7 0 0 0;
#X restore 519 293 pd gemwin;
#X msg 519 274 destroy;
#X text 515 253 Create window:;
#X obj 450 118 cnv 15 160 60 empty empty empty 20 12 0 14 -24198 -66577
0;
#X obj 451 51 gemhead;
#X text -307 77 Description: ambient colouring;
#X obj 450 285 cube;
#X obj 500 192 gemhead;
#X obj 500 230 world_light;
#X text -314 91 [ambientRGB] accepts a gemList and sets the ambient-color
for all subsequent vertex-operations. You have to enable lighting to
see any effects.;
#X text -274 156 a list of 3 (RGB) or 4 (RGBA) float-values.;
#X text -276 171 defaults: 0.2 0.2 0.2 1;
#X text -273 229 Inlet 2: float: red value;
#X text -273 244 Inlet 3: float: green value;
#X text -273 259 Inlet 4: float: blue value;
#X text -273 274 Inlet 5: float: alpha value;
#X obj 451 156 ambientRGB 0 1 0;
#X floatatom 477 122 3 0 1 0 - - -;
#X floatatom 504 122 3 0 1 0 - - -;
#X floatatom 531 122 3 0 1 0 - - -;
#X floatatom 558 122 3 0 1 0 - - -;
#X floatatom 548 192 5 0 0 0 - - -;
#X obj 500 211 rotate 70 1 0 0;
#X obj 518 8 declare -lib Gem;
#X obj 150 162 snapshot~;
#X obj 106 136 bang~;
#X floatatom 150 207 5 0 0 0 - - -;
#X obj 150 108 cycle~ 0.01;
#X obj 229 162 snapshot~;
#X floatatom 229 207 5 0 0 0 - - -;
#X obj 229 108 cycle~ 0.1;
#X obj 301 162 snapshot~;
#X floatatom 301 207 5 0 0 0 - - -;
#X obj 301 108 cycle~ 0.001;
#X obj 382 154 snapshot~;
#X floatatom 382 199 5 0 0 0 - - -;
#X obj 382 81 cycle~ 0.1;
#X floatatom 462 254 5 0 0 0 - - -;
#X text 431 251 size;
#X connect 9 0 10 0;
#X connect 10 0 9 0;
#X connect 13 0 25 0;
#X connect 16 0 31 0;
#X connect 25 0 15 0;
#X connect 26 0 25 1;
#X connect 27 0 25 2;
#X connect 28 0 25 3;
#X connect 29 0 25 4;
#X connect 30 0 31 1;
#X connect 31 0 17 0;
#X connect 33 0 35 0;
#X connect 34 0 33 0;
#X connect 34 0 37 0;
#X connect 34 0 40 0;
#X connect 34 0 43 0;
#X connect 35 0 26 0;
#X connect 36 0 33 0;
#X connect 37 0 38 0;
#X connect 38 0 27 0;
#X connect 39 0 37 0;
#X connect 40 0 41 0;
#X connect 41 0 28 0;
#X connect 42 0 40 0;
#X connect 43 0 44 0;
#X connect 45 0 43 0;
#X connect 46 0 15 1;
